<svg width="26" height="26" viewBox="0 0 26 26" fill="none" xmlns="http://www.w3.org/2000/svg">
<path d="M0.879883 13.44C0.879883 6.54745 6.46737 0.959961 13.3599 0.959961C20.2524 0.959961 25.8399 6.54745 25.8399 13.44C25.8399 20.3325 20.2524 25.92 13.3599 25.92C6.46737 25.92 0.879883 20.3325 0.879883 13.44Z" fill="white"/>
<path fill-rule="evenodd" clip-rule="evenodd" d="M16.0987 5.95197C16.2293 6.83941 15.8681 7.70881 15.3916 8.32393C14.8818 8.98371 14.0031 9.49401 13.1517 9.46738C12.9963 8.61774 13.3942 7.74232 13.8784 7.15384C14.4096 6.50436 15.3199 6.00609 16.0987 5.95197ZM18.6563 18.4432C19.0952 17.7705 19.2592 17.4312 19.5999 16.6718C17.1217 15.7293 16.7246 12.2062 19.1772 10.854C18.4291 9.91583 17.3779 9.37202 16.3856 9.37202C15.6706 9.37202 15.1807 9.55861 14.7354 9.72823C14.3643 9.86958 14.024 9.99916 13.6103 9.99916C13.1631 9.99916 12.7671 9.85719 12.3525 9.70852C11.8969 9.54517 11.4188 9.37374 10.8255 9.37374C9.71197 9.37374 8.52669 10.0541 7.77521 11.2174C6.71887 12.8557 6.89905 15.9355 8.61208 18.5592C9.22437 19.4982 10.0425 20.5531 11.1125 20.5626C11.5564 20.567 11.8519 20.4345 12.1716 20.2911C12.5375 20.127 12.9353 19.9486 13.6239 19.9449C14.3166 19.9408 14.7081 20.1213 15.0692 20.2879C15.3807 20.4315 15.6696 20.5648 16.1098 20.56C17.1806 20.5514 18.044 19.3822 18.6563 18.4432Z" fill="#0B0B0A"/>
</svg>
