<svg width="26" height="25" viewBox="0 0 26 25" fill="none" xmlns="http://www.w3.org/2000/svg">
<path d="M0.959961 12.48C0.959961 5.58749 6.54745 0 13.44 0C20.3325 0 25.92 5.58749 25.92 12.48C25.92 19.3725 20.3325 24.96 13.44 24.96C6.54745 24.96 0.959961 19.3725 0.959961 12.48Z" fill="#4C6C91"/>
<path d="M14.0928 16.5756C14.0928 16.5756 14.3331 16.5494 14.4561 16.4196C14.5688 16.3008 14.5648 16.0764 14.5648 16.0764C14.5648 16.0764 14.5499 15.0289 15.0453 14.8743C15.5337 14.7222 16.1607 15.8872 16.8261 16.3353C17.3287 16.674 17.7103 16.5999 17.7103 16.5999L19.4884 16.5756C19.4884 16.5756 20.4181 16.5193 19.9774 15.8016C19.9409 15.7428 19.7202 15.2705 18.6556 14.3003C17.5403 13.2848 17.6901 13.4491 19.0326 11.6921C19.8504 10.6223 20.1772 9.96911 20.075 9.68982C19.978 9.42267 19.3764 9.49361 19.3764 9.49361L17.375 9.50576C17.375 9.50576 17.2265 9.48594 17.1165 9.55049C17.009 9.61376 16.9394 9.7614 16.9394 9.7614C16.9394 9.7614 16.6229 10.589 16.2004 11.2933C15.309 12.7786 14.9529 12.8572 14.807 12.7652C14.4678 12.5498 14.5525 11.9011 14.5525 11.4403C14.5525 10.0004 14.7751 9.4003 14.1195 9.245C13.902 9.19323 13.7419 9.15936 13.1852 9.15361C12.4709 9.14658 11.8667 9.15616 11.5243 9.32041C11.2964 9.4297 11.1206 9.67384 11.228 9.6879C11.3602 9.70516 11.6597 9.76715 11.8185 9.97933C12.0236 10.2535 12.0165 10.8683 12.0165 10.8683C12.0165 10.8683 12.1343 12.5632 11.7411 12.7735C11.4715 12.918 11.1017 12.6233 10.3067 11.2754C9.89978 10.5852 9.59247 9.82211 9.59247 9.82211C9.59247 9.82211 9.53322 9.67959 9.42709 9.6029C9.29882 9.51023 9.11977 9.48147 9.11977 9.48147L7.21794 9.49361C7.21794 9.49361 6.93211 9.50128 6.82728 9.62335C6.73418 9.73136 6.82012 9.95569 6.82012 9.95569C6.82012 9.95569 8.30917 13.3756 9.99549 15.0992C11.5418 16.6791 13.2972 16.5756 13.2972 16.5756H14.0928Z" fill="white"/>
</svg>
