<svg width="26" height="26" viewBox="0 0 26 26" fill="none" xmlns="http://www.w3.org/2000/svg">
<path d="M0.919922 13.44C0.919922 6.54745 6.50741 0.959961 13.3999 0.959961C20.2924 0.959961 25.8799 6.54745 25.8799 13.44C25.8799 20.3325 20.2924 25.92 13.3999 25.92C6.50741 25.92 0.919922 20.3325 0.919922 13.44Z" fill="#55ACEE"/>
<path d="M13.0261 11.1039L13.0523 11.5357L12.6159 11.4828C11.0271 11.2801 9.6391 10.5927 8.46062 9.43821L7.88447 8.86537L7.73607 9.28839C7.42181 10.2314 7.62259 11.2273 8.2773 11.897C8.62648 12.2672 8.54791 12.3201 7.94558 12.0997C7.73607 12.0292 7.55275 11.9764 7.53529 12.0028C7.47418 12.0645 7.68369 12.8665 7.84955 13.1837C8.07652 13.6244 8.53918 14.0562 9.04549 14.3118L9.47324 14.5145L8.96693 14.5233C8.47808 14.5233 8.46062 14.5321 8.51299 14.7172C8.68758 15.29 9.37721 15.8981 10.1454 16.1625L10.6866 16.3476L10.2152 16.6296C9.51689 17.035 8.69631 17.2641 7.87574 17.2818C7.48291 17.2906 7.15992 17.3258 7.15992 17.3523C7.15992 17.4404 8.22492 17.9339 8.84472 18.1278C10.7041 18.7007 12.9127 18.4539 14.5713 17.4757C15.7498 16.7794 16.9282 15.3958 17.4782 14.0562C17.775 13.3424 18.0718 12.038 18.0718 11.4123C18.0718 11.0069 18.098 10.954 18.5868 10.4693C18.8749 10.1873 19.1455 9.87886 19.1979 9.79073C19.2852 9.62329 19.2765 9.62329 18.8313 9.77311C18.0893 10.0375 17.9845 10.0022 18.3511 9.60566C18.6218 9.32365 18.9447 8.81249 18.9447 8.66267C18.9447 8.63623 18.8138 8.6803 18.6654 8.75961C18.5083 8.84774 18.1591 8.97994 17.8972 9.05926L17.4258 9.20908L16.9981 8.91825C16.7624 8.75961 16.4307 8.58335 16.2561 8.53048C15.8109 8.4071 15.13 8.42472 14.7284 8.56573C13.6372 8.96231 12.9476 9.98462 13.0261 11.1039Z" fill="white"/>
</svg>
